<svg xmlns="http://www.w3.org/2000/svg"><symbol id="call-answer" viewBox="0 0 348.077 348.077"><path d="M340.273 275.083l-53.755-53.761c-10.707-10.664-28.438-10.34-39.518.744l-27.082 27.076a792.327 792.327 0 0 1-5.344-2.973c-17.102-9.476-40.509-22.464-65.14-47.113-24.704-24.701-37.704-48.144-47.209-65.257-1.003-1.813-1.964-3.561-2.913-5.221l18.176-18.149 8.936-8.947c11.097-11.1 11.403-28.826.721-39.521L73.39 8.194c-10.682-10.68-28.421-10.356-39.518.744l-15.15 15.237.414.411c-5.08 6.482-9.325 13.958-12.484 22.02C3.74 54.28 1.927 61.603 1.098 68.941-6 127.785 20.89 181.564 93.866 254.541c100.875 100.868 182.167 93.248 185.674 92.876 7.638-.913 14.958-2.738 22.397-5.627 7.992-3.122 15.463-7.361 21.941-12.43l.331.294 15.348-15.029c11.074-11.098 11.393-28.83.716-39.542z" fill="#FFF"/></symbol><symbol id="e-mail-envelope" viewBox="0 0 485.411 485.411"><path d="M0 81.824v321.763h485.411V81.824H0zm242.708 198.702L43.612 105.691h398.187L242.708 280.526zm-79.311-37.877L23.867 365.178V120.119l139.53 122.53zm18.085 15.884l61.22 53.762 61.22-53.762L441.924 379.72H43.487l137.995-121.187zm140.526-15.878l139.535-122.536v245.059L322.008 242.655z" fill="#FFF"/></symbol><symbol id="github" viewBox="0 0 568.034 568.034"><path d="M550.99 0H17.051C8.948 0 2.381 6.567 2.381 14.67v538.694c0 8.104 6.567 14.67 14.67 14.67h177.498v-.129c8.011-.092 14.149-4.577 14.431-12.166.728-19.725.214-39.492.214-58.562-14.296.667-27.944 2.473-41.438 1.695-29.762-1.714-52.632-14.413-64.493-43.556-7.026-17.265-17.613-32.032-34.101-41.886-3.079-1.842-5.771-4.554-8.127-7.308-3.079-3.592-2.503-7.282 2.362-8.268 4.908-.998 10.27-1.695 15.11-.79 19.009 3.568 32.154 15.49 42.216 31.347 19.896 31.371 50.521 40.974 84.976 26.487 1.921-.808 4.363-2.766 4.725-4.553 2.778-13.887 7.968-26.549 18.427-37.65-11.628-2.154-22.399-3.739-32.962-6.188-30.417-7.038-57.742-19.7-77.724-44.848-16.303-20.514-23.758-44.528-27.185-70.086-5.367-40.031-.563-77.503 26.928-109.493 1.389-1.616 2.142-4.927 1.524-6.94-6.885-22.497-5.833-44.805.991-67.051 3.581-11.683 4.578-12.265 16.5-10.637.729.098 1.438.281 2.161.404 23.898 3.954 44.468 15.526 64.731 27.95 2.724 1.671 6.873 2.711 9.866 1.983 48.397-11.744 96.702-11.695 145.093.043 2.809.679 6.561-.288 9.247-1.695 11.016-5.759 21.561-12.454 32.718-17.914 12.98-6.346 26.652-11.12 41.371-10.857 2.576.049 6.561 2.509 7.423 4.786 8.856 23.464 10.723 47.375 3.666 71.794-.753 2.607.367 6.322 1.769 8.892 6.965 12.779 16.689 24.572 21.096 38.127 13.434 41.316 8.538 82.229-9.749 121.06-16.757 35.594-47.834 53.63-84.621 62.933-12.424 3.14-25.153 5.049-38.556 7.681 17.564 18.348 20.318 40.74 20.006 64.192-.324 24.192-.238 48.391-.251 72.589-.006 11.72 5.11 18.195 14.039 18.574-.006.037 188.723.037 188.723.037V14.67C565.653 6.567 559.087 0 550.99 0z" fill="#FFF"/></symbol><symbol id="icon-menu-close" viewBox="0 0 20.514 20.512"><path fill="#fff" d="M20.513 1.414L19.099 0l-8.843 8.842L1.414 0 0 1.414l8.842 8.842L0 19.098l1.414 1.414 8.842-8.842 8.843 8.842 1.414-1.414-8.842-8.842z"/></symbol><symbol id="icon-menu-open" viewBox="0 0 19.958 14"><path fill="#fff" d="M0 0h19.958v2H0zM0 6h19.958v2H0zM0 12h19.958v2H0z"/></symbol><symbol id="ok-mark" viewBox="0 0 45.102 45.102"><path d="M17.021 44.403c.427.45.995.698 1.601.698a2.18 2.18 0 0 0 1.672-.791c8.155-9.735 19.136-21.879 23.248-24.062.906-.482 1.515-1.456 1.515-2.423V1.933C45.056.678 44.137 0 43.272 0c-.314 0-.795.086-1.283.494-3.067 2.556-17.81 15.301-22.718 27.964l-4.691-7.624c-.63-1.02-2.088-1.386-3.122-.783L1.102 26.075c-.599.349-.981.924-1.046 1.579-.065.654.194 1.294.714 1.755 2.139 1.9 12.977 11.543 16.251 14.994zm-4.643-21.419l5.636 9.16c.378.613.96.965 1.597.965.613 0 1.437-.375 1.736-1.432C24.438 20.776 36.79 9.016 42.054 4.387V17.64c-5.462 2.98-18.68 18.348-23.482 24.054-3.429-3.461-11.281-10.499-14.85-13.674l8.656-5.036z" fill="#FFF"/></symbol><symbol id="portfolio" viewBox="0 0 512 512"><path d="M377 260.346c-.597-1.997-1.506-3.756-2.728-5.276-1.223-1.52-2.743-2.742-4.561-3.667-1.819-.923-3.95-1.387-6.394-1.387-2.506 0-4.666.478-6.485 1.431-1.819.954-3.325 2.223-4.517 3.802-1.193 1.58-2.072 3.369-2.637 5.365a22.301 22.301 0 0 0-.851 6.127c0 2.146.297 4.218.895 6.215.594 1.998 1.489 3.77 2.682 5.32 1.193 1.552 2.697 2.803 4.517 3.758 1.818.954 3.979 1.431 6.484 1.431s4.681-.492 6.529-1.476c1.847-.983 3.352-2.264 4.517-3.844 1.162-1.579 2.025-3.383 2.593-5.412.565-2.027.85-4.083.85-6.171 0-2.147-.3-4.217-.894-6.216zM288.641 173.481c-1.074-1.162-2.146-1.745-3.22-1.745h-10.553v13.595h10.999c1.074 0 2.072-.596 2.997-1.789.923-1.192 1.387-2.863 1.387-5.008 0-2.205-.536-3.889-1.61-5.053zM230.067 181.978c-.597-1.997-1.508-3.756-2.728-5.276-1.223-1.52-2.743-2.742-4.561-3.667-1.819-.923-3.95-1.387-6.394-1.387-2.505 0-4.665.478-6.484 1.431-1.819.954-3.325 2.223-4.517 3.802-1.193 1.58-2.072 3.369-2.637 5.365a22.301 22.301 0 0 0-.851 6.127c0 2.146.297 4.218.895 6.215.593 1.998 1.488 3.77 2.681 5.321 1.193 1.552 2.697 2.803 4.517 3.758 1.818.954 3.979 1.431 6.484 1.431s4.681-.492 6.529-1.476c1.847-.983 3.352-2.264 4.517-3.844 1.162-1.579 2.025-3.383 2.593-5.411.565-2.027.851-4.083.851-6.171 0-2.149-.3-4.22-.895-6.218z"/><path d="M476.44.001L35.557 0v469.332h42.664V512l21.333-14.222L120.887 512v-42.667h355.556L476.44.001zM313.681 156.534H367.698v15.202h-18.244v48.293h-17.439v-48.293h-18.334v-15.202zm-56.252 0h29.155c3.099 0 5.961.641 8.585 1.923 2.624 1.283 4.875 2.951 6.753 5.008 1.877 2.057 3.352 4.415 4.426 7.066 1.074 2.654 1.61 5.32 1.61 8.004 0 3.698-.804 7.141-2.414 10.33-1.61 3.19-3.846 5.798-6.709 7.825l13.416 23.341h-19.675l-11.18-19.497h-6.528v19.496h-17.439v-63.496zm-83.257 93.571h-26.113v10.553h21.285v14.131h-21.285v23.61H130.62v-63.497h43.553v15.203zm-.581-56.321c-1.819 2.057-4.023 3.698-6.618 4.918-2.593 1.222-5.44 1.833-8.54 1.833h-10.374v19.496H130.62v-63.497h27.365c3.1 0 5.961.641 8.586 1.923 2.623 1.283 4.874 2.951 6.751 5.008s3.354 4.415 4.426 7.066c1.074 2.654 1.61 5.32 1.61 8.004a22.75 22.75 0 0 1-1.519 8.183c-1.016 2.652-2.431 5.008-4.248 7.066zm66.49 85.161c-1.61 3.846-3.846 7.245-6.707 10.196s-6.275 5.32-10.24 7.11c-3.965 1.788-8.303 2.682-13.01 2.682-4.83 0-9.213-.923-13.147-2.772-3.935-1.847-7.305-4.277-10.105-7.289-2.803-3.009-4.979-6.453-6.528-10.33a31.944 31.944 0 0 1-2.325-11.984c0-4.173.804-8.198 2.414-12.072 1.61-3.873 3.86-7.286 6.753-10.239 2.89-2.951 6.318-5.305 10.283-7.066 3.965-1.758 8.303-2.638 13.012-2.638 4.83 0 9.212.924 13.146 2.772 3.937 1.849 7.303 4.292 10.106 7.333a32.935 32.935 0 0 1 6.484 10.374c1.519 3.876 2.281 7.841 2.281 11.894a30.88 30.88 0 0 1-2.417 12.029zm6.17-78.368c-1.61 3.846-3.846 7.245-6.707 10.196-2.862 2.951-6.275 5.32-10.24 7.11-3.965 1.788-8.303 2.682-13.012 2.682-4.828 0-9.212-.924-13.147-2.772s-7.305-4.277-10.105-7.289c-2.803-3.009-4.979-6.453-6.528-10.33a31.944 31.944 0 0 1-2.325-11.984 31.195 31.195 0 0 1 2.415-12.072c1.61-3.876 3.86-7.289 6.753-10.24 2.89-2.951 6.318-5.305 10.283-7.066 3.965-1.758 8.303-2.637 13.012-2.637 4.828 0 9.212.924 13.146 2.772 3.937 1.849 7.303 4.292 10.106 7.333a32.935 32.935 0 0 1 6.484 10.374c1.519 3.877 2.281 7.841 2.281 11.894a30.854 30.854 0 0 1-2.416 12.029zm51.245 97.821h-46.235v-63.495H268.7v48.293h28.796v15.202zm24.862 0h-17.439v-63.495h17.439v63.495zm70.827-19.452c-1.61 3.846-3.846 7.245-6.707 10.196s-6.275 5.32-10.24 7.11c-3.965 1.788-8.303 2.682-13.01 2.682-4.828 0-9.212-.923-13.147-2.772-3.935-1.847-7.305-4.277-10.105-7.289-2.803-3.009-4.979-6.453-6.528-10.33a31.944 31.944 0 0 1-2.325-11.984c0-4.173.804-8.198 2.414-12.072 1.61-3.876 3.86-7.289 6.753-10.24 2.89-2.951 6.318-5.305 10.283-7.066 3.965-1.758 8.303-2.638 13.012-2.638 4.83 0 9.212.924 13.146 2.772 3.937 1.85 7.303 4.294 10.108 7.334a32.935 32.935 0 0 1 6.484 10.374c1.519 3.876 2.28 7.841 2.28 11.894a30.896 30.896 0 0 1-2.418 12.029z"/><path d="M160.043 173.168c-1.074-.954-2.146-1.432-3.22-1.432h-8.764v13.595h9.212c1.072 0 2.069-.492 2.995-1.476.923-.983 1.387-2.758 1.387-5.32 0-2.623-.537-4.412-1.61-5.367zM223.898 260.346c-.597-1.997-1.506-3.756-2.728-5.276-1.223-1.52-2.743-2.742-4.561-3.667-1.819-.923-3.949-1.387-6.394-1.387-2.505 0-4.665.478-6.484 1.431-1.819.954-3.325 2.223-4.517 3.802-1.193 1.58-2.072 3.369-2.638 5.365a22.301 22.301 0 0 0-.851 6.127c0 2.146.297 4.218.895 6.215.594 1.998 1.489 3.77 2.682 5.321 1.193 1.552 2.697 2.803 4.517 3.758 1.818.954 3.979 1.431 6.484 1.431s4.68-.492 6.529-1.476c1.847-.983 3.352-2.264 4.517-3.844 1.162-1.579 2.025-3.383 2.593-5.412.565-2.027.85-4.083.85-6.171a21.7 21.7 0 0 0-.894-6.217z"/></symbol><symbol id="profile-information" viewBox="0 0 61.707 61.708"><circle cx="30.766" cy="13.429" r="13.429"/><path d="M12.128 48.756c-.344-4.427.35-8.502 1.427-11.998-1.065 4.796-1.309 11.124.599 19.254h6.338c2.153 3.416 5.947 5.695 10.273 5.695s8.12-2.279 10.273-5.695h6.457s2.731-9.758.57-19.51c1.126 3.562 1.864 7.731 1.514 12.254 0 0 6.6-5.441 4.052-13.197-2.548-7.757-11.511-10.684-11.511-10.684-2.928 2.878-6.935 4.663-11.355 4.663-4.362 0-8.32-1.74-11.236-4.551 0 0-8.906 2.814-11.455 10.571-2.545 7.758 4.054 13.198 4.054 13.198zm18.637-8.904c5.423 0 9.817 4.395 9.817 9.816 0 5.424-4.396 9.818-9.817 9.818-5.423 0-9.818-4.396-9.818-9.818s4.396-9.816 9.818-9.816z"/><path d="M30.755 46.01c1.292 0 2.146-.771 2.146-1.959 0-1.188-.854-1.979-2.146-1.979-1.292 0-2.127.791-2.127 1.979 0 1.188.834 1.959 2.127 1.959zM28.815 47.511h3.773v9.754h-3.773z"/></symbol><symbol id="settings-work-tool" viewBox="0 0 268.765 268.765"><path d="M267.92 119.461c-.425-3.778-4.83-6.617-8.639-6.617-12.315 0-23.243-7.231-27.826-18.414-4.682-11.454-1.663-24.812 7.515-33.231a7.463 7.463 0 0 0 .817-10.133 132.977 132.977 0 0 0-21.289-21.5c-3.063-2.458-7.557-2.116-10.213.825-8.01 8.871-22.398 12.168-33.516 7.529-11.57-4.867-18.866-16.591-18.152-29.176a7.455 7.455 0 0 0-6.595-7.849 134.163 134.163 0 0 0-30.232-.08 7.478 7.478 0 0 0-6.654 7.689c.438 12.461-6.946 23.98-18.401 28.672-10.985 4.487-25.272 1.218-33.266-7.574-2.642-2.896-7.063-3.252-10.141-.853a133.478 133.478 0 0 0-21.74 21.493c-2.481 3.086-2.116 7.559.802 10.214 9.353 8.47 12.373 21.944 7.514 33.53-4.639 11.046-16.109 18.165-29.24 18.165-4.261-.137-7.296 2.723-7.762 6.597a134.618 134.618 0 0 0-.058 30.561c.422 3.794 4.961 6.608 8.812 6.608 11.702-.299 22.937 6.946 27.65 18.415 4.698 11.454 1.678 24.804-7.514 33.23a7.469 7.469 0 0 0-.817 10.126 133.459 133.459 0 0 0 21.259 21.508c3.079 2.481 7.559 2.131 10.228-.81 8.04-8.893 22.427-12.184 33.501-7.536 11.599 4.852 18.895 16.575 18.181 29.167a7.464 7.464 0 0 0 6.595 7.85 133.572 133.572 0 0 0 30.233.081 7.479 7.479 0 0 0 6.653-7.696c-.451-12.454 6.946-23.973 18.386-28.657 11.059-4.517 25.286-1.211 33.281 7.572a7.51 7.51 0 0 0 10.142.848 133.787 133.787 0 0 0 21.74-21.494 7.461 7.461 0 0 0-.803-10.213c-9.353-8.47-12.388-21.946-7.529-33.524 4.568-10.899 15.612-18.217 27.491-18.217l1.662.043c3.853.313 7.398-2.655 7.865-6.588a134.504 134.504 0 0 0 .06-30.561zm-133.325 60.03c-24.718 0-44.824-20.106-44.824-44.824 0-24.717 20.106-44.824 44.824-44.824 24.717 0 44.823 20.107 44.823 44.824 0 24.718-20.106 44.824-44.823 44.824z" fill-rule="evenodd" clip-rule="evenodd"/></symbol><symbol id="skype-logo" viewBox="0 0 430.123 430.123"><path d="M412.164 246.198a199.284 199.284 0 0 0 2.45-31.148c0-110.215-89.342-199.555-199.56-199.555-10.576 0-20.995.871-31.141 2.458C165.534 6.581 143.842 0 120.595 0 53.996 0 .005 53.984.005 120.59c0 23.242 6.585 44.916 17.952 63.332-1.573 10.172-2.439 20.528-2.439 31.132 0 110.223 89.34 199.536 199.532 199.536 10.585 0 21.007-.816 31.152-2.417 18.398 11.35 40.072 17.949 63.314 17.949 66.617 0 120.602-53.998 120.602-120.602.005-23.251-6.576-44.92-17.954-63.322zM309.801 305.81c-8.442 12.153-20.843 21.65-37.047 28.479-16.237 6.847-35.428 10.254-57.59 10.254-26.562 0-48.554-4.648-65.913-14.034-12.305-6.721-22.313-15.737-30.007-26.98-7.71-11.252-11.619-22.271-11.619-33.015 0-6.338 2.417-11.85 7.122-16.344 4.754-4.527 10.877-6.796 18.104-6.796 5.92 0 11.005 1.783 15.145 5.316 4.109 3.532 7.556 8.667 10.375 15.443 3.379 7.85 7.049 14.412 10.954 19.648 3.881 5.171 9.343 9.488 16.417 12.867 6.996 3.388 16.307 5.082 27.958 5.082 15.945 0 28.831-3.449 38.693-10.253 9.912-6.866 14.673-15.22 14.673-25.314 0-8.051-2.567-14.445-7.831-19.43-5.312-5.05-12.172-8.896-20.685-11.579-8.546-2.711-20.02-5.586-34.399-8.615-19.308-4.214-35.456-9.119-48.533-14.752-13.094-5.654-23.522-13.383-31.251-23.146-7.745-9.859-11.607-22.113-11.607-36.627 0-13.84 4.077-26.217 12.239-36.989 8.158-10.802 19.961-19.07 35.351-24.829 15.336-5.757 33.391-8.637 54.075-8.637 16.541 0 30.849 1.914 42.96 5.722 12.078 3.836 22.146 8.898 30.196 15.25 7.999 6.338 13.885 13.023 17.613 20.038 3.725 7.036 5.601 13.908 5.601 20.614 0 6.235-2.417 11.89-7.127 16.846-4.709 4.963-10.733 7.493-17.768 7.47-6.342 0-11.317-1.463-14.767-4.56-3.36-2.996-6.889-7.766-10.706-14.414-4.825-9.276-10.604-16.503-17.324-21.672-6.543-5.073-17.338-7.714-32.359-7.682-13.898 0-25.018 2.84-33.411 8.394-8.445 5.643-12.482 12.19-12.501 19.861.014 4.807 1.396 8.86 4.177 12.326 2.824 3.498 6.753 6.529 11.803 9.084a81.825 81.825 0 0 0 15.355 6.046c5.225 1.481 13.894 3.622 25.944 6.457 15.112 3.257 28.819 6.896 41.136 10.862 12.293 3.986 22.784 8.793 31.451 14.52 8.736 5.71 15.564 12.99 20.438 21.783 4.909 8.807 7.354 19.564 7.354 32.222.019 15.242-4.227 28.95-12.689 41.084z" fill="#FFF"/></symbol><symbol id="skype" viewBox="0 0 455 455"><g fill="#FFF" fill-rule="evenodd" clip-rule="evenodd"><path d="M285.828 224.324c-6.357-4.187-14.031-7.709-23.039-10.631-9.021-2.905-19.071-5.569-30.126-7.963-8.82-2.069-15.177-3.64-19.005-4.716a61 61 0 0 1-11.244-4.428c-3.692-1.881-6.58-4.104-8.649-6.667-2.034-2.529-3.041-5.499-3.058-9.021.017-5.622 2.975-10.408 9.161-14.543 6.151-4.069 14.284-6.156 24.469-6.156 11.008-.018 18.904 1.916 23.704 5.626 4.922 3.793 9.144 9.091 12.683 15.872 2.8 4.874 5.381 8.361 7.844 10.566 2.529 2.271 6.169 3.329 10.815 3.329 5.145.017 9.555-1.829 13.007-5.469 3.452-3.623 5.211-7.774 5.211-12.338 0-4.904-1.365-9.949-4.099-15.089-2.717-5.145-7.039-10.032-12.902-14.682-5.88-4.646-13.265-8.356-22.098-11.161-8.868-2.8-19.364-4.187-31.461-4.187-15.159 0-28.389 2.104-39.615 6.326-11.261 4.204-19.911 10.268-25.891 18.182-5.963 7.879-8.956 16.953-8.956 27.086 0 10.631 2.822 19.604 8.492 26.814 5.657 7.162 13.296 12.819 22.886 16.953 9.586 4.139 21.411 7.726 35.547 10.802 10.526 2.222 18.935 4.323 25.191 6.322 6.234 1.951 11.261 4.769 15.159 8.479 3.841 3.64 5.723 8.321 5.723 14.219 0 7.398-3.487 13.519-10.749 18.541-7.21 4.992-16.647 7.503-28.333 7.503-8.531 0-15.347-1.229-20.475-3.71-5.18-2.476-9.178-5.639-12.014-9.432-2.857-3.828-5.556-8.632-8.033-14.389-2.052-4.957-4.581-8.715-7.591-11.296-3.041-2.599-6.751-3.898-11.091-3.898-5.298 0-9.774 1.658-13.261 4.974-3.434 3.299-5.211 7.332-5.211 11.961 0 7.88 2.853 15.947 8.509 24.185 5.622 8.238 12.954 14.831 21.976 19.753 12.718 6.891 28.814 10.29 48.265 10.29 16.236 0 30.284-2.494 42.175-7.521 11.878-4.988 20.952-11.944 27.138-20.847 6.186-8.89 9.297-18.922 9.279-30.096 0-9.262-1.776-17.141-5.364-23.586-3.568-6.442-8.578-11.77-14.969-15.957z"/><path d="M0 0v455h455V0H0zm296.677 385c-17.019 0-32.896-4.834-46.379-13.143a145.335 145.335 0 0 1-22.816 1.781c-80.697 0-146.116-65.424-146.116-146.138 0-7.774.63-15.348 1.776-22.798C74.821 191.201 70 175.341 70 158.322 70 109.528 109.546 70 158.323 70c17.019 0 32.896 4.821 46.362 13.142a147.451 147.451 0 0 1 22.816-1.794c80.714 0 146.134 65.419 146.134 146.151 0 7.761-.613 15.365-1.794 22.798 8.339 13.484 13.16 29.361 13.16 46.384C385 345.454 345.454 385 296.677 385z"/></g></symbol><symbol id="students-cap" viewBox="0 0 791.803 791.803"><path d="M395.904 475.016l-236.203-72.7v121.42c0 56.133 105.787 101.644 236.274 101.644 130.48 0 236.285-45.511 236.285-101.644 0-.442-.145-.886-.154-1.318V402.316l-236.202 72.7z"/><path d="M0 318.734l84.383 30.185 7.191-15.401 31-2.635 4.42 4.599-26.601 6.308-3.877 11.475c-.007 0-60.087 125.604-51.263 187.05 0 0 37.502 22.37 74.988 0l9.962-168v-13.984l55.8-12.588-3.941 9.705-41.604 13.529 19.242 6.874 236.203 72.7 236.201-72.7 159.699-57.116-395.9-152.313L0 318.734z"/></symbol><symbol id="telegram" viewBox="0 0 455.731 455.731"><g fill="#FFF"><path d="M316.244 149.903L149.082 253.579a7.605 7.605 0 0 0-3.255 8.717l22.423 72.253c.471 1.518 2.683 1.309 2.861-.271l5.45-48.448a7.603 7.603 0 0 1 2.519-4.847l141.556-125.177c3.389-2.996-.547-8.288-4.392-5.903z"/><path d="M0 0v455.731h455.731V0H0zm379.882 118.418l-52.031 248.76c-2.442 11.673-16.133 16.916-25.747 9.859l-78.559-57.665-40.039 40.881c-7.027 7.175-19.166 4.271-22.185-5.308l-28.901-91.706-77.441-22.868c-10.16-3-10.759-17.165-.888-21.012L358.844 100.6c11.6-4.52 23.587 5.632 21.038 17.818z"/></g></symbol><symbol id="vk" viewBox="0 0 455 455"><path d="M0 0v455h455V0H0zm341.098 251.727c10.445 10.19 21.49 19.784 30.865 31.049 4.142 4.978 8.06 10.113 11.046 15.881 4.239 8.264.397 17.318-6.985 17.817l-45.875-.02c-11.841.973-21.277-3.801-29.235-11.902-6.328-6.45-12.243-13.354-18.352-20.023-2.486-2.746-5.115-5.314-8.239-7.362-6.267-4.061-11.703-2.828-15.285 3.699-3.643 6.649-4.499 14.031-4.835 21.435-.499 10.807-3.76 13.634-14.607 14.154-23.208 1.075-45.218-2.451-65.659-14.134-18.052-10.307-32.022-24.879-44.184-41.356-23.702-32.124-41.855-67.391-58.154-103.673-3.684-8.177-.993-12.559 7.999-12.717 14.99-.296 29.974-.26 44.943-.02 6.089.102 10.129 3.582 12.458 9.334 8.101 19.906 18.01 38.85 30.448 56.427 3.327 4.677 6.71 9.334 11.504 12.636 5.314 3.663 9.375 2.466 11.881-3.485 1.595-3.78 2.293-7.8 2.629-11.841 1.192-13.833 1.335-27.681-.718-41.473-1.274-8.621-6.149-14.195-14.745-15.825-4.382-.836-3.725-2.446-1.615-4.958 3.704-4.315 7.189-7.006 14.093-7.006h51.847c8.177 1.595 10.011 5.278 11.122 13.497l.041 57.619c-.097 3.184 1.595 12.615 7.306 14.704 4.575 1.513 7.622-2.171 10.368-5.075 12.417-13.176 21.277-28.756 29.194-44.877 3.505-7.087 6.532-14.449 9.477-21.817 2.17-5.452 5.553-8.137 11.703-8.04l49.916.061c1.472 0 2.986 0 4.438.239 8.396 1.452 10.705 5.075 8.096 13.293-4.076 12.875-12.06 23.625-19.84 34.391-8.341 11.525-17.216 22.647-25.495 34.233-7.562 10.609-6.966 15.943 2.449 25.135z" fill="#FFF" fill-rule="evenodd" clip-rule="evenodd"/></symbol><symbol id="vk_contacts" viewBox="0 0 304.36 304.36"><path d="M261.945 175.576c10.096 9.857 20.752 19.131 29.807 29.982 4 4.822 7.787 9.798 10.684 15.394 4.105 7.955.387 16.709-6.746 17.184l-44.34-.02c-11.436.949-20.559-3.655-28.23-11.474-6.139-6.253-11.824-12.908-17.727-19.372-2.42-2.642-4.953-5.128-7.979-7.093-6.053-3.929-11.307-2.726-14.766 3.587-3.523 6.421-4.322 13.531-4.668 20.687-.475 10.441-3.631 13.186-14.119 13.664-22.414 1.057-43.686-2.334-63.447-13.641-17.422-9.968-30.932-24.04-42.691-39.971-22.895-31.021-40.428-65.108-56.186-100.15C-2.01 76.458.584 72.22 9.295 72.07c14.465-.281 28.928-.261 43.41-.02 5.879.086 9.771 3.458 12.041 9.012 7.826 19.243 17.402 37.551 29.422 54.521 3.201 4.518 6.465 9.036 11.113 12.216 5.142 3.521 9.057 2.354 11.476-3.374 1.535-3.632 2.207-7.544 2.553-11.434 1.146-13.383 1.297-26.743-.713-40.079-1.234-8.323-5.922-13.711-14.227-15.286-4.238-.803-3.607-2.38-1.555-4.799 3.564-4.172 6.916-6.769 13.598-6.769h50.111c7.889 1.557 9.641 5.101 10.721 13.039l.043 55.663c-.086 3.073 1.535 12.192 7.07 14.226 4.43 1.448 7.35-2.096 10.008-4.905 11.998-12.734 20.561-27.783 28.211-43.366 3.395-6.852 6.314-13.968 9.143-21.078 2.096-5.276 5.385-7.872 11.328-7.757l48.229.043c1.43 0 2.877.021 4.262.258 8.127 1.385 10.354 4.881 7.844 12.817-3.955 12.451-11.65 22.827-19.174 33.251-8.043 11.129-16.645 21.877-24.621 33.072-7.328 10.223-6.746 15.376 2.357 24.255zm0 0" fill="#FFF" fill-rule="evenodd" clip-rule="evenodd"/></symbol></svg>